<mxfile host="app.diagrams.net" modified="2023-10-29T18:24:05.396Z" agent="Mozilla/5.0 (Windows NT 10.0; Win64; x64) AppleWebKit/537.36 (KHTML, like Gecko) Chrome/118.0.0.0 Safari/537.36 Edg/118.0.2088.76" version="22.0.8" etag="-5ISapnI0rHDMt7fDHBU" type="github">
  <diagram name="Sayfa -1" id="cO7RciFqPh7GR0no6NFq">
    <mxGraphModel>
      <root>
        <mxCell id="0" />
        <mxCell id="1" parent="0" />
      </root>
    </mxGraphModel>
  </diagram>
</mxfile>
